<svg id="Layer_1" data-name="Layer 1" xmlns="http://www.w3.org/2000/svg" viewBox="0 0 1782.44 1328.42"><defs><style>.cls-1{fill:#c4e0ff;}.cls-1,.cls-10,.cls-11,.cls-12,.cls-13,.cls-14,.cls-15,.cls-16,.cls-17,.cls-18,.cls-19,.cls-20,.cls-23,.cls-24,.cls-25,.cls-26,.cls-27,.cls-28,.cls-29,.cls-4,.cls-5,.cls-6,.cls-9{fill-rule:evenodd;}.cls-2{fill:#383e80;}.cls-3{fill:#9797dd;}.cls-4{fill:#e8eaf6;}.cls-5{fill:#f7f8fd;}.cls-6{fill:#989ed8;}.cls-7{fill:#fe8e04;}.cls-11,.cls-8{fill:#ffc9b5;}.cls-21,.cls-9{fill:#515696;}.cls-10{fill:#5e8ddd;}.cls-12{fill:#ff9000;}.cls-13{fill:#fe7e17;}.cls-14{fill:#3d3e5d;}.cls-15{fill:#464473;}.cls-16{fill:#ffb700;}.cls-17{fill:#ffa711;}.cls-18{fill:#eaeef9;}.cls-19{fill:#454664;}.cls-20,.cls-22{fill:#a6b3dd;}.cls-23{fill:#a9b2d3;}.cls-24{fill:#f3f7ff;}.cls-25{fill:#ccddfb;}.cls-26{fill:#516495;}.cls-27{fill:#ffca2d;}.cls-28{fill:#fff;}.cls-29{fill:#feb005;}</style></defs><title>compromisso</title><path class="cls-1" d="M394.53,1142.35c-63.46,52.28-193.64,115-242.46,192.38s-16.27,169.48,54.77,230.6,180.59,91.29,282.2,84.15,195.27-51.6,309.58-67.87,249.25-4.37,371.9,23.81,233,72.63,344.11,78.19,223.06-27.78,292.91-87.71,97.64-146.46,53.1-238.12-161.41-188.44-169.74-279.33S1782.76,902.57,1842,818.39s77.48-167.52,66-242.93-52.79-142.88-120.66-175-162.33-29-233.38.79-118.67,86.13-218.69,127.83-252.43,68.72-386.18,46.89-248.86-92.52-350.86-90.16S407.28,563.55,385,662.49s22.09,221.4,45.91,303.56S458,1090.06,394.53,1142.35Z" transform="translate(-128.78 -355.79)"/><rect class="cls-2" x="462.14" y="840.38" width="970.85" height="42.4"/><rect class="cls-2" x="540.1" y="866.97" width="25.87" height="229.6"/><rect class="cls-2" x="1329.14" y="866.97" width="25.87" height="229.6"/><rect class="cls-3" x="532.37" y="151.22" width="717.9" height="451.65"/><path class="cls-4" d="M682.15,936.41v.16H1358V540.3C1103.17,602.8,866,747.43,682.15,936.41Z" transform="translate(-128.78 -355.79)"/><path class="cls-5" d="M682.15,529.11v407.3C866,747.43,1103.17,602.8,1358,540.3V529.11Z" transform="translate(-128.78 -355.79)"/><polygon class="cls-6" points="599.41 536.97 591.43 529.73 743.38 362.26 816.21 454.11 1006.79 304.45 1053.77 357.83 1180.68 229.36 1188.34 236.93 1053.32 373.63 1005.43 319.22 814.43 469.22 742.82 378.91 599.41 536.97"/><circle class="cls-7" cx="1312.75" cy="590.55" r="13.2" transform="translate(-254.85 191.53) rotate(-22.5)"/><circle class="cls-7" cx="727.44" cy="886.98" r="13.2" transform="translate(-542.91 418.38) rotate(-45)"/><rect class="cls-8" x="1006.49" y="523.38" width="30.72" height="50.66"/><path class="cls-9" d="M1088.38,1373s19.76-2.88,23,5,3.24,23.35,1.44,27-72.22,10.06-75.82,1.43,5.39-46,45.28-22.63C1082.27,1383.73,1084.42,1373.31,1088.38,1373Z" transform="translate(-128.78 -355.79)"/><path class="cls-9" d="M1066.6,1075.87s-28.28,211.74,21,300.51l21-.66s7.23-199.9,44.06-218.31,80.22,159.13,67.73,219l20.38,2s57.21-126.25-4.6-304.45C1186.93,1020.64,1082.38,1054.83,1066.6,1075.87Z" transform="translate(-128.78 -355.79)"/><path class="cls-9" d="M1241.79,1372.23s-19.76-2.87-23,5-3.24,23.35-1.44,27,72.22,10.06,75.82,1.43-5.39-46-45.28-22.63C1247.9,1383,1245.75,1372.59,1241.79,1372.23Z" transform="translate(-128.78 -355.79)"/><path class="cls-9" d="M1167.25,887.58s22.58-11.81,69.5,7.65,76.18-7.09,99.81-31.07,69.16,45.52,29.89,78.88-84.52,37.67-158.89-13.06c0,0,15.29,62.9,32.32,89s18.76,76.11,18.76,76.11-67.76-18.42-88.61-11.82c0,0-22.94-125.45-20.16-176.54Z" transform="translate(-128.78 -355.79)"/><path class="cls-10" d="M1182.54,1039.1l12.85-69.51-16-13.55,10.42-37.53-25.36-19.11s-14.25,16.68-14.25,17.72,8.34,126.49,8.34,126.49Z" transform="translate(-128.78 -355.79)"/><path class="cls-10" d="M1357.06,875.63s21.2-11.82,26.42-16.34c9.38,8.69,18.76,23.64,13.9,30.59s-27.46,16.33-27.46,16.33S1353.94,898.21,1357.06,875.63Z" transform="translate(-128.78 -355.79)"/><path class="cls-11" d="M1381,865.9s-1.39-18.42,8.69-42.4a38.45,38.45,0,0,1,8.34,20.16A359.45,359.45,0,0,0,1424.48,819c9.38-4.17,41.36,40.66-29.88,66.38C1394.6,885.36,1382.43,878.41,1381,865.9Z" transform="translate(-128.78 -355.79)"/><path class="cls-9" d="M1131.52,891.53s-22.59-11.82-69.5,7.64-76.18-7.09-99.81-31.06S893.05,913.63,932.33,947s84.52,37.67,158.88-13.07c0,0-15.29,62.9-32.32,89s-18.76,76.1-18.76,76.1,67.76-18.41,88.62-11.81c0,0,22.93-125.45,20.15-176.54Z" transform="translate(-128.78 -355.79)"/><path class="cls-10" d="M1116.23,1043l-12.85-69.5,16-13.55-10.43-37.53,25.38-19.12s14.24,16.68,14.24,17.73-8.34,126.49-8.34,126.49Z" transform="translate(-128.78 -355.79)"/><path class="cls-10" d="M941.71,879.57s-21.2-11.81-26.41-16.33c-9.39,8.69-18.77,23.63-13.91,30.58s27.46,16.33,27.46,16.33S944.83,902.16,941.71,879.57Z" transform="translate(-128.78 -355.79)"/><path class="cls-11" d="M917.73,869.84s1.39-18.42-8.69-42.39a38.39,38.39,0,0,0-8.34,20.15s-14.94-12.51-26.41-24.67c-9.39-4.17-41.36,40.66,29.88,66.37C904.17,889.3,916.34,882.35,917.73,869.84Z" transform="translate(-128.78 -355.79)"/><path class="cls-12" d="M1129,1062.73s-10.43-39.27,11.47-134.14l8-6.26,5.91,6.95s14.94,81,42,123.37L1171.07,1094S1133.88,1075.93,1129,1062.73Z" transform="translate(-128.78 -355.79)"/><path class="cls-13" d="M1137.71,909.82l2.78,18.77,13.9.69,8-19.11S1143.61,906,1137.71,909.82Z" transform="translate(-128.78 -355.79)"/><path class="cls-10" d="M1136,875.77s8.69,26.75,13.9,30.92c9-8,18.42-31.62,18.42-31.62l9.38,42-27.8-5.21-23.28,6.6A167.62,167.62,0,0,1,1136,875.77Z" transform="translate(-128.78 -355.79)"/><path class="cls-11" d="M1182.57,840.52c0,25.14-13.69,45.53-30.58,45.53s-30.58-20.39-30.58-45.53S1135.1,795,1152,795,1182.57,815.38,1182.57,840.52Z" transform="translate(-128.78 -355.79)"/><path class="cls-14" d="M1115.56,802.93s2.51,49.64,61.9,15.09a40.58,40.58,0,0,1-5.66,8.16s.94,17.91,10,19.48c0,0,21.05-19.48,1-31.42C1182.8,814.24,1174.31,769.32,1115.56,802.93Z" transform="translate(-128.78 -355.79)"/><path class="cls-9" d="M317.66,1461.34S327.72,1431.52,346,1424c33.06,31.26,78.33,18.33,74,37C409.64,1482.54,317.66,1478.58,317.66,1461.34Z" transform="translate(-128.78 -355.79)"/><path class="cls-15" d="M402.45,1202.62S414.67,1342.75,345,1424c0,0-1.08,9,11.13,11.88,0,0,126.12-49.95,134-169.25C475.75,1176,402.45,1202.62,402.45,1202.62Z" transform="translate(-128.78 -355.79)"/><path class="cls-15" d="M401.74,1122.13s-33.78,102.77,28,143.73S545,1298.27,597.44,1410.38l19.41-5.75s-5.79-143-36.9-179.73C508.81,1140.82,414.67,1154.47,401.74,1122.13Z" transform="translate(-128.78 -355.79)"/><path class="cls-16" d="M479.05,973.9s14-31.77,31-8.13,49.5,147,85.7,161.8c27.34-.74,53.94,26.6,22.9,54.67s-84.22,12.56-108.6-63.54S479.05,973.9,479.05,973.9Z" transform="translate(-128.78 -355.79)"/><path class="cls-17" d="M626.48,1157.54s14.56,1.62,18.33,3.77S647,1185,631.87,1192s-34.49-2.16-34.49-2.16S608.7,1165.09,626.48,1157.54Z" transform="translate(-128.78 -355.79)"/><path class="cls-12" d="M486.53,927.4s-90.9,41-99.53,177.86c-9.93,157.72,193.31,87.32,162.77-1.07S531.09,918.06,486.53,927.4Z" transform="translate(-128.78 -355.79)"/><path class="cls-11" d="M481.14,850.87s57.13-8.26,62.52,4.67S536.84,914.83,514.2,931,446.29,928.84,481.14,850.87Z" transform="translate(-128.78 -355.79)"/><path class="cls-14" d="M445.21,858.78s6.17,5.7,5.75,22.27c-.72,28.39,20.48,39.89,21.92,9,1.15-24.76,11.86-12.94,27.31-20.48s41.12,12.32,55.33-.36c50.3-44.92-19.51-105.83-44.92-67.91C485.81,838.3,429.76,821.05,445.21,858.78Z" transform="translate(-128.78 -355.79)"/><path class="cls-16" d="M479,1011.84s-18.69-46.35,0-53.53,53.17,42.39,67.19,80.84c18-7.19,51.74-65.75,92.7-73.3,41.32,11.5,49.22,51,42.4,65.4s-75.1,64.67-119.65,71.14C513.48,1097.36,479,1011.84,479,1011.84Z" transform="translate(-128.78 -355.79)"/><path class="cls-17" d="M650,983.1s10.78-15.81,18.32-18.68c10.42,5,26.23,21.55,22.64,27.3-4,6.11-16.89,15.09-16.89,15.09S657.92,1007.17,650,983.1Z" transform="translate(-128.78 -355.79)"/><path class="cls-11" d="M670.68,974s10.84-24.15,11.83-41.89c11.82-28.09,34.5-20.21,41.89-20.7,5.91,10.35-26.86,8.13-24.4,23.41,4.93,5.42,22.43,30.8-18,49C675.61,980.86,670.68,974,670.68,974Z" transform="translate(-128.78 -355.79)"/><path class="cls-11" d="M681.46,1174.52c-9.32-4-32.88-8.62-38.81-5.39s-9.43,18.59-9.43,18.59,17.52,12.67,19.67,17.79c3.72,1.13,6.24-3.66,4.85-10.1,19.8,3.31,38.68.43,41-6.88C701.4,1179.91,693.31,1179.64,681.46,1174.52Z" transform="translate(-128.78 -355.79)"/><path class="cls-9" d="M598.21,1407a21.7,21.7,0,0,1,15-4.85c7.55,3.64,47.46,43.85,62.89,50.06,1.69,14.38-10.28,18.74-14.19,19.56s-48,1.06-56.45-25.48S598.21,1407,598.21,1407Z" transform="translate(-128.78 -355.79)"/><path class="cls-10" d="M999.26,1329.83c-13.55-75.89-131.22-63-144.62-61.25-13.4-1.72-131.07-14.64-144.62,61.25-14.37,80.48,11.5,127.91,11.5,127.91s18.68,5.75,31.62-.71c0,0-5-114.06,101.5-119.22C961.12,1343,956.14,1457,956.14,1457c12.94,6.46,31.62.71,31.62.71S1013.63,1410.31,999.26,1329.83Z" transform="translate(-128.78 -355.79)"/><path class="cls-11" d="M892.91,944.29s12.58,39.52,15.45,53.18S901.53,1041,875,1042.38,826.8,989.56,892.91,944.29Z" transform="translate(-128.78 -355.79)"/><path class="cls-14" d="M809.55,1000.7s12.58,40.61,32.7,45.28,32.33-9.35,20.84-38.45c-1.8-13.29,12.21-31.62,22.64-9.7,11.13-.72,6.46-20.84,11.85-26.59s15.81-6.47,21.92-18.32-20.12-58.63-79-30.9C797.69,942.14,809.55,1000.7,809.55,1000.7Z" transform="translate(-128.78 -355.79)"/><path class="cls-18" d="M835.06,1046.34s25.15-16.89,51.38-3.6a78.84,78.84,0,0,1,11.86,20.84s81.2,47.07,110.31,112.47c11.5,32-23,82.29-70.43,45.63,0,0,30.54,89.83-76.89,101.32s-117.13-55-105.64-91.62c0,0-45.18,18.59-61.71-23.8s56.68-136.45,128.54-147.23C825.36,1054.24,835.06,1046.34,835.06,1046.34Z" transform="translate(-128.78 -355.79)"/><path class="cls-9" d="M727.27,1454.15s19.76-2.87,23,5,3.23,23.36,1.43,27-72.22,10.06-75.81,1.44,5.39-46,45.27-22.64C721.16,1464.93,723.32,1454.51,727.27,1454.15Z" transform="translate(-128.78 -355.79)"/><path class="cls-9" d="M982,1454.15s-19.76-2.87-23,5-3.24,23.36-1.44,27,72.22,10.06,75.81,1.44-5.38-46-45.27-22.64C988.12,1464.93,986,1454.51,982,1454.15Z" transform="translate(-128.78 -355.79)"/><path class="cls-9" d="M879.12,1229.25H818.76a32.16,32.16,0,0,1-32.16-32.16h0a32.16,32.16,0,0,1,32.16-32.16h60.36a32.16,32.16,0,0,1,32.16,32.16h0A32.16,32.16,0,0,1,879.12,1229.25Z" transform="translate(-128.78 -355.79)"/><path class="cls-14" d="M848.94,1459.92h0a8.8,8.8,0,0,1-8.8-8.8V1195.58a8.8,8.8,0,0,1,8.8-8.8h0a8.8,8.8,0,0,1,8.8,8.8v255.54A8.8,8.8,0,0,1,848.94,1459.92Z" transform="translate(-128.78 -355.79)"/><path class="cls-9" d="M899.78,1366.49H798.1a17.43,17.43,0,0,1-17.43-17.43h0a17.42,17.42,0,0,1,17.43-17.42H899.78a17.42,17.42,0,0,1,17.43,17.42h0A17.43,17.43,0,0,1,899.78,1366.49Z" transform="translate(-128.78 -355.79)"/><path class="cls-14" d="M778.29,1513.34l-.63-.08a12.65,12.65,0,0,1-10.15-16.82c8.86-24.58,32.72-55.56,82-55.56s72.72,31,81.17,55.71a12.65,12.65,0,0,1-10.45,16.65l-.61.07a12.58,12.58,0,0,1-13.46-8.4c-4.76-14.19-18.46-38.16-56.65-38.16s-52.41,24.08-57.5,38.2A12.72,12.72,0,0,1,778.29,1513.34Z" transform="translate(-128.78 -355.79)"/><path class="cls-13" d="M1308.27,1482s-3.5-22.91-.27-26.14,24-1.08,32.07-13.74c3.88-2.07,9.13-3.55,15-4.53,24.85-4.15,45,19.9,36.76,43.69h0l-45.54-.54-6.2-10.6-1.08,10.6Z" transform="translate(-128.78 -355.79)"/><path class="cls-11" d="M1344.74,1305s38.06,56.65,43.58,85.35c0,0,20-.61,22.33-12.49,2-12.65-20.19-78.71-31.29-92.51C1361.88,1283.83,1344.74,1305,1344.74,1305Z" transform="translate(-128.78 -355.79)"/><path class="cls-13" d="M1388.09,1415.56s-5.72-22.45-2.82-26,23.76-3.41,30.57-16.81c3.66-2.43,8.73-4.42,14.46-6,24.33-6.56,46.79,15.4,40.86,39.89h0l-45.37,3.92-7.21-9.95,0,10.66Z" transform="translate(-128.78 -355.79)"/><path class="cls-11" d="M1275.93,1367.74s32.34,60.09,35,89.2c0,0,20,1.34,23.45-10.25,3.24-12.39-12.4-80.3-22.1-95.12C1295.07,1348.33,1275.93,1367.74,1275.93,1367.74Z" transform="translate(-128.78 -355.79)"/><path class="cls-16" d="M1288.87,1214.67s73.3-12.39,100.25,86.78c-10.78,55-92.17,83-117.5,77.6,0,0-56-78.14-100.25-86.23C1149.28,1257.25,1210.72,1197.43,1288.87,1214.67Z" transform="translate(-128.78 -355.79)"/><path class="cls-9" d="M1260.7,1335.94H1159a17.42,17.42,0,0,1-17.42-17.43h0a17.43,17.43,0,0,1,17.42-17.43H1260.7a17.43,17.43,0,0,1,17.42,17.43h0A17.42,17.42,0,0,1,1260.7,1335.94Z" transform="translate(-128.78 -355.79)"/><path class="cls-13" d="M1170.84,1055.68s17.24-32.88,74.91-20.48c-10.78,123.42,90,129.89,49,233.37-16.52,41.74-167.08,73.3-180.56-13.48S1157.9,1177.48,1170.84,1055.68Z" transform="translate(-128.78 -355.79)"/><path class="cls-13" d="M1383.57,1094.41s-31.21-45.22-18.35-74c13.34-29.81,73.81-51.34,78.78,2.77S1427.24,1203.09,1383.57,1094.41Z" transform="translate(-128.78 -355.79)"/><path class="cls-11" d="M1398.72,1003.67s13.54,17.17,24.77-2.61c5-8.88,10.71-24,10.44-32.81-.54-17.59-21.78-26.81-22.84-21.52s-6.79,32.44-6.79,32.44-3.12-9.3-10.15-13C1377.84,957.64,1397.26,982.21,1398.72,1003.67Z" transform="translate(-128.78 -355.79)"/><path class="cls-13" d="M1089.08,1139s23-65.82,21.93-97.3c-1.44-42.39-82.71-54.1-87.67,0S1045.42,1247.65,1089.08,1139Z" transform="translate(-128.78 -355.79)"/><path class="cls-11" d="M1076.09,1019.48s-13.54,17.17-24.77-2.61c-5-8.88-10.71-24-10.44-32.81.54-17.59,21.77-26.81,22.83-21.53S1070.5,995,1070.5,995s3.13-9.3,10.15-13C1097,973.45,1077.55,998,1076.09,1019.48Z" transform="translate(-128.78 -355.79)"/><path class="cls-13" d="M1187.18,1082.09s-12.39,36.83-19.4,50.84-37.19,55.15-66.83,61.08-95.56-40.53-39.34-57.67C1124.67,1117.12,1154.85,1058.91,1187.18,1082.09Z" transform="translate(-128.78 -355.79)"/><path class="cls-13" d="M1268.39,1079s33.06-15.81,63.24-.71c16.29,8.14,36.57,14.41,54.38,17.42a41.5,41.5,0,0,1,34.73,42.22h0s-87,25.15-129.36.72C1258.33,1131.49,1239.64,1112.09,1268.39,1079Z" transform="translate(-128.78 -355.79)"/><path class="cls-19" d="M1145,979.86s9.16-44.73,45.27-39.88,28.56,17.79,46.35,21.56,20.48,40.42,17.25,66.83,29.64,37.19,49,68.45,24.26,99.17-25.87,122.34-37.19-19.94-74.38,7-92.7-22.1-60.36-73.84,31.8-83,15.09-92.7S1105.08,1019.75,1145,979.86Z" transform="translate(-128.78 -355.79)"/><path class="cls-9" d="M1240,1198.69h-60.37a32.15,32.15,0,0,1-32.15-32.16h0a32.15,32.15,0,0,1,32.15-32.16H1240a32.16,32.16,0,0,1,32.16,32.16h0A32.16,32.16,0,0,1,1240,1198.69Z" transform="translate(-128.78 -355.79)"/><path class="cls-14" d="M1209.86,1429.37h0a8.82,8.82,0,0,1-8.81-8.81V1165a8.82,8.82,0,0,1,8.81-8.81h0a8.81,8.81,0,0,1,8.8,8.81v255.53A8.81,8.81,0,0,1,1209.86,1429.37Z" transform="translate(-128.78 -355.79)"/><path class="cls-14" d="M1139.2,1482.79l-.62-.09a12.64,12.64,0,0,1-10.15-16.81c8.86-24.59,32.71-55.57,82-55.57s72.71,31.06,81.17,55.72a12.65,12.65,0,0,1-10.45,16.64l-.61.08a12.58,12.58,0,0,1-13.46-8.41c-4.77-14.18-18.46-38.16-56.65-38.16s-52.42,24.09-57.5,38.21A12.73,12.73,0,0,1,1139.2,1482.79Z" transform="translate(-128.78 -355.79)"/><path class="cls-9" d="M1668.14,1293S1428,1057.81,1570.66,975c58.58-34,65.62,80.59,80.59,40.29s-66.77-214.13-1.15-262.48S1789.4,831.1,1733,924.36s80.61,26.69,98,143.26C1839.92,1127.05,1827.67,1250.94,1668.14,1293Z" transform="translate(-128.78 -355.79)"/><path class="cls-20" d="M1755.37,1115.06a2.16,2.16,0,0,0-3-.35c-2,1.61-47.9,39.17-81,151.41-.39-163.92,13-430.35,13.12-433.76a2.16,2.16,0,1,0-4.31-.21c-.13,2.62-8.08,161.51-11.54,309.41-14.84-66.23-65-101.17-65.56-101.54a2.16,2.16,0,0,0-2.43,3.56c.57.39,56.91,39.66,66.43,113.86a2.14,2.14,0,0,0,1.17,1.62c-.92,43.7-1.39,85.84-1.1,122a.06.06,0,0,0,0,0,2.08,2.08,0,0,0,0,1.08c.32,37.51,1.47,68.49,3.83,88a2.15,2.15,0,0,0,2.13,1.9l.26,0a2.15,2.15,0,0,0,1.89-2.4c-2.35-19.44-3.5-50.43-3.81-88,32.8-121.94,83.07-163.17,83.57-163.57A2.16,2.16,0,0,0,1755.37,1115.06Z" transform="translate(-128.78 -355.79)"/><rect class="cls-21" x="1495.76" y="995.13" width="101.52" height="114.41"/><rect class="cls-22" x="1484.08" y="973.38" width="124.88" height="23.37"/><polygon class="cls-23" points="1460.56 275.97 1448.41 278.96 1452.8 256.92 1460.56 275.97"/><polygon class="cls-24" points="1433.69 211.49 1476.4 313.82 1616.15 239.56 1433.69 211.49"/><polygon class="cls-25" points="1616.15 239.56 1450.37 251.84 1452.76 258.93 1616.15 239.56"/><path class="cls-25" d="M1577.19,634.75c.12-.44,4.35-20,4.35-20l-2.39-7.09Z" transform="translate(-128.78 -355.79)"/><path class="cls-26" d="M1562.91,638.47a3.21,3.21,0,1,0-.12-6.42l-3.25.07a3.21,3.21,0,0,0-1.92,5.72,3.12,3.12,0,0,0,2.07.69l3.22-.06Zm-10.22,333.08a3.21,3.21,0,0,0,5.8-1.69,3.16,3.16,0,0,0-.6-2.08l-1.9-2.62a3.21,3.21,0,1,0-5.2,3.77l1.9,2.62ZM1539.5,953a3.21,3.21,0,0,0,5.31-3.61c-1.21-1.77-2.4-3.54-3.57-5.33a3.21,3.21,0,0,0-5.85,1.22,3.17,3.17,0,0,0,.48,2.28q1.79,2.75,3.63,5.44Zm-13.75-22.36a3.21,3.21,0,0,0,6-.8,3.17,3.17,0,0,0-.3-2.22c-1-1.88-2-3.76-2.89-5.67a3.21,3.21,0,1,0-5.77,2.81q1.44,3,3,5.88Zm-10.46-24.31a3.21,3.21,0,1,0,6.11-2q-1-3-1.77-6.05a3.21,3.21,0,0,0-6.21,1.62c.57,2.15,1.19,4.27,1.87,6.39Zm-5.49-25.93a3.21,3.21,0,0,0,5.78,1.52,3.16,3.16,0,0,0,.59-2.26c-.24-2.11-.43-4.21-.61-6.32a3.21,3.21,0,0,0-6.4.48c.25,2.18.38,4.39.64,6.58Zm-.64-6.58,6.4-.48-6.4.48Zm-.48-19.75a3.22,3.22,0,0,0,5.38,2.45,3.15,3.15,0,0,0,1-2.28c.05-2.13.14-4.25.26-6.38a3.21,3.21,0,0,0-5.45-2.47,3.16,3.16,0,0,0-1,2.11c-.13,2.18-.22,4.38-.28,6.57Zm2.29-26.19a3.21,3.21,0,0,0,6.35.94c.3-2.1.65-4.21,1-6.3a3.21,3.21,0,0,0-6.32-1.14c-.39,2.15-.75,4.33-1.06,6.5Zm5.55-25.76a3.21,3.21,0,1,0,6.16,1.81c.59-2,1.23-4,1.92-6a3.21,3.21,0,1,0-6.07-2.1q-1.08,3.13-2,6.32Zm10.33-24.6a3.21,3.21,0,0,0,5.49,3.33,54,54,0,0,1,3.44-5,3.21,3.21,0,1,0-5.06-3.95,60.78,60.78,0,0,0-3.87,5.66Zm21.31-17.73a3.22,3.22,0,0,0-.77,6,3.26,3.26,0,0,0,2.17.28,19.78,19.78,0,0,1,5.53-.46,3.21,3.21,0,0,0,2.35-5.59,3.14,3.14,0,0,0-1.93-.81,26,26,0,0,0-7.35.59Zm26.13,10.46a3.21,3.21,0,0,0-5.7,2.95,11.09,11.09,0,0,1,1.21,4.82,3.21,3.21,0,1,0,6.41-.13,17.39,17.39,0,0,0-1.92-7.64Zm-7.89,26.94a3.21,3.21,0,1,0-3.93-5.08,21.64,21.64,0,0,1-4.84,2.8,3.21,3.21,0,1,0,2.42,5.94,28.26,28.26,0,0,0,6.35-3.66Zm-1.46,1.06-3.58-5.33,3.58,5.33Zm-25.8,4.34a3.21,3.21,0,0,0,2.94-5.33,3.25,3.25,0,0,0-1.78-1,41.91,41.91,0,0,1-5.83-1.5,3.21,3.21,0,0,0-2,6.09,47,47,0,0,0,6.7,1.72Zm-24.66-11.4a3.21,3.21,0,1,0,3.88-5.11,56.72,56.72,0,0,1-4.78-4,3.21,3.21,0,0,0-4.31,4.76,58.41,58.41,0,0,0,5.21,4.31Zm-5.21-4.31,4.32-4.75-4.32,4.75ZM1496,771.68a3.21,3.21,0,0,0,5.29-3.64c-1.17-1.71-2.32-3.47-3.36-5.26a3.21,3.21,0,0,0-5.54,3.24c1.16,1.93,2.33,3.8,3.61,5.66Zm-11.9-23.94a3.21,3.21,0,0,0,6,.13,3.17,3.17,0,0,0,0-2.17c-.66-2-1.27-4-1.81-6a3.21,3.21,0,0,0-6-.52,3.15,3.15,0,0,0-.19,2.18q.87,3.23,1.92,6.39Zm-5.24-26.14a3.21,3.21,0,1,0,6.4-.45c-.13-2.09-.22-4.15-.22-6.25a3.21,3.21,0,0,0-6.42,0c0,2.24.1,4.46.24,6.7Zm2-26.73a3.21,3.21,0,0,0,6.24,1.52c.5-2.07,1.12-3.91,1.73-5.92a3.21,3.21,0,1,0-6.06-2.12,66.71,66.71,0,0,0-1.91,6.52Zm11.1-24.54a3.21,3.21,0,1,0,5.29,3.63q1.77-2.58,3.72-5a3.21,3.21,0,0,0-5-4q-2.1,2.63-4,5.4Zm18.06-19.7a3.21,3.21,0,0,0,4.1,4.94c1.56-1.3,3.28-2.7,4.94-3.85a3.21,3.21,0,1,0-3.75-5.2c-1.81,1.28-3.59,2.69-5.29,4.11Zm5.29-4.11,3.75,5.2-3.75-5.2Zm17.65-9.84a3.21,3.21,0,0,0,.27,6.08,3.1,3.1,0,0,0,2-.09,56.66,56.66,0,0,1,5.83-1.9,3.21,3.21,0,0,0,.55-6,3.16,3.16,0,0,0-2.2-.2A61.41,61.41,0,0,0,1533.05,636.68Z" transform="translate(-128.78 -355.79)"/><path class="cls-26" d="M287.18,842a3.21,3.21,0,1,0,1.59,6.22l3.11-.8a3.21,3.21,0,1,0-1.59-6.22l-3.11.8Zm268.3-226.59a3.21,3.21,0,0,0-4.8-3.66,3.15,3.15,0,0,0-1.32,1.74l-1,3.05a3.21,3.21,0,0,0,5.06,3.48,3.16,3.16,0,0,0,1.06-1.55l1-3.06Zm-6.73,21.11a3.21,3.21,0,0,0-4.9-3.62,3.13,3.13,0,0,0-1.2,1.62c-.65,2-1.3,4-2,6a3.21,3.21,0,1,0,6.08,2c.68-2,1.34-4,2-6Zm-8.3,23.94a3.21,3.21,0,0,0-6-2.25c-.73,2-1.47,3.9-2.23,5.85a3.21,3.21,0,1,0,6,2.33q1.16-3,2.27-5.93ZM530.74,684a3.21,3.21,0,0,0-5.83-2.69c-.86,1.88-1.76,3.76-2.67,5.62a3.21,3.21,0,0,0,4.33,4.28,3.14,3.14,0,0,0,1.43-1.45q1.41-2.87,2.74-5.76Zm-11.93,22.61a3.21,3.21,0,1,0-5.48-3.34c-1.07,1.75-2.17,3.52-3.31,5.23a3.21,3.21,0,1,0,5.36,3.53c1.18-1.79,2.32-3.59,3.43-5.42ZM504,727.54a3.21,3.21,0,0,0-4.93-4.12q-2,2.37-4,4.64a3.21,3.21,0,1,0,4.73,4.34q2.18-2.39,4.24-4.86Zm-18.41,18.14a3.21,3.21,0,1,0-4-5.06c-1.6,1.25-3.23,2.44-4.91,3.58a3.21,3.21,0,1,0,3.59,5.32c1.8-1.22,3.55-2.5,5.27-3.84Zm-23,12.63a3.21,3.21,0,1,0-1.92-6.12,49,49,0,0,1-5.73,1.44,3.21,3.21,0,1,0,1.17,6.31,53.88,53.88,0,0,0,6.48-1.63Zm-26.38,1.85a3.21,3.21,0,1,0,1-6.34,55.73,55.73,0,0,1-5.85-1.22,3.21,3.21,0,0,0-1.62,6.22,64.75,64.75,0,0,0,6.48,1.34Zm-24.69-9.26a3.21,3.21,0,0,0,3.5-5.38,42,42,0,0,1-4.66-3.5,3.21,3.21,0,0,0-4.25,4.81,47.51,47.51,0,0,0,5.41,4.07ZM396.61,728a3.21,3.21,0,1,0,6.41.27,9.61,9.61,0,0,1,1.23-4.51v0a3.21,3.21,0,0,0-5.5-3.32,15.94,15.94,0,0,0-2.13,7.53Zm23.1-7.82a3.21,3.21,0,0,0-5.54,2.56,3.15,3.15,0,0,0,.82,1.79,20.85,20.85,0,0,1,3.15,4.47,3.21,3.21,0,0,0,5.67-3,27.41,27.41,0,0,0-4.1-5.8Zm8.05,25.85a47,47,0,0,1-.93,6.69,3.21,3.21,0,0,1-6.28-1.35,40.33,40.33,0,0,0,.81-5.79,3.21,3.21,0,1,1,6.4.45Zm-7.91,25.15a3.21,3.21,0,1,0-5.67-3q-1.43,2.68-3,5.29a3.21,3.21,0,0,0,5.47,3.36c1.13-1.85,2.21-3.72,3.23-5.64ZM405,792.47a3.21,3.21,0,1,0-4.82-4.24c-1.34,1.54-2.73,3-4.16,4.51a3.22,3.22,0,0,0,2.35,5.45,3.18,3.18,0,0,0,2.25-1c1.5-1.55,3-3.13,4.38-4.75Zm-18.87,17.6a3.21,3.21,0,0,0-2.24-5.75,3.09,3.09,0,0,0-1.64.64q-2.44,1.85-5,3.58a3.21,3.21,0,0,0,3.61,5.31q2.67-1.83,5.25-3.78Zm-22,13.47a3.21,3.21,0,0,0-2.85-5.75c-1.85.92-3.71,1.78-5.58,2.65a3.21,3.21,0,1,0,2.63,5.85c1.94-.91,3.87-1.79,5.8-2.75Zm-23.61,9.85a3.22,3.22,0,0,0-.09-6.09,3.27,3.27,0,0,0-2.05,0c-2,.69-3.92,1.36-5.9,2a3.21,3.21,0,0,0,.25,6.16,3.1,3.1,0,0,0,1.76-.07q3-1,6-2.05ZM316.32,841a3.21,3.21,0,0,0-1.73-6.18c-2,.57-4,1.1-6,1.67a3.21,3.21,0,1,0,1.68,6.2Z" transform="translate(-128.78 -355.79)"/><polygon class="cls-23" points="430.88 236.48 426.47 248.19 410.78 232.09 430.88 236.48"/><polygon class="cls-24" points="362.51 222.13 471.05 244.84 488.94 87.61 362.51 222.13"/><polygon class="cls-25" points="488.94 87.61 405.22 231.22 412.42 233.26 488.94 87.61"/><path class="cls-25" d="M555.25,604c-.3-.36-14.06-14.93-14.06-14.93L534,587Z" transform="translate(-128.78 -355.79)"/><path class="cls-27" d="M1468.82,400.94c-66,0-67.56,82.57-42.32,108.65,16,16.48,23.2,40.35,23.2,40.35l19.12,6.83,19.12-6.83s7.24-23.87,23.19-40.35C1536.37,483.51,1534.84,400.94,1468.82,400.94Z" transform="translate(-128.78 -355.79)"/><path class="cls-28" d="M1479.13,557.24h-.94c0-.4.11-28.93.3-51.7-.28,0-.56,0-.85,0a33.38,33.38,0,0,1-14.12-4.15l1.64,55.18-.93,0-1.66-55.79c-9.19-5.89-14-17.06-14.41-33.38-.14-5.95.94-10.83,3.21-14.52a5.64,5.64,0,0,1,6.39-2.52,5.83,5.83,0,0,1,4.42,5.54l1.31,44.32a31.88,31.88,0,0,0,14.23,4.36c.26,0,.52,0,.78,0,.07-8.6.16-16.3.27-21.23a3.91,3.91,0,0,1,7.23-2c1.5,2.44,2.67,6.26,3.48,11.36a11.09,11.09,0,0,1-10.06,12.75c-.19,22.77-.29,51.34-.29,51.74Zm3.58-76.77a2.86,2.86,0,0,0-.8.11,2.93,2.93,0,0,0-2.21,2.81c-.1,4.92-.19,12.59-.27,21.17a10.14,10.14,0,0,0,9.13-11.66c-.79-5-1.92-8.69-3.35-11a2.85,2.85,0,0,0-2.5-1.41Zm-26.53-29.41a4.58,4.58,0,0,0-4,2.29c-2.17,3.53-3.2,8.24-3.07,14,.37,15.61,4.88,26.39,13.45,32.22l-1.29-43.67a4.93,4.93,0,0,0-3.73-4.67A5.29,5.29,0,0,0,1456.18,451.06Z" transform="translate(-128.78 -355.79)"/><path class="cls-28" d="M1479.12,559h-2.71v-2.08c0-3.08.11-28.52.29-49.73a39.71,39.71,0,0,1-7.18-1.38,33.13,33.13,0,0,1-4.13-1.52l1.6,53.95-4.49.13-1.68-56.65a29.68,29.68,0,0,1-10.4-13.05q-3.74-8.65-4-21.26a36.25,36.25,0,0,1,.74-8.53,22.49,22.49,0,0,1,2.72-7h0a7.38,7.38,0,0,1,3.62-3.07,7.5,7.5,0,0,1,4.74-.24h0a7.66,7.66,0,0,1,4.09,2.64,7.58,7.58,0,0,1,1.65,4.57l1.28,43.33a26.15,26.15,0,0,0,5.29,2.25,34.12,34.12,0,0,0,6.21,1.26c0-3.83.07-7.43.11-10.64,0-3.41.09-6.37.14-8.69a5.59,5.59,0,0,1,1.19-3.4,5.7,5.7,0,0,1,3-2h0a5.56,5.56,0,0,1,6.32,2.5,21.91,21.91,0,0,1,2.18,5.1,51,51,0,0,1,1.54,6.91h0a12.79,12.79,0,0,1-3.29,10.74,13.09,13.09,0,0,1-3.82,2.83,12.75,12.75,0,0,1-2.94,1c-.18,21.26-.27,46.8-.28,49.88V559Zm3.59-76.76h-.18l-.16,0a1.25,1.25,0,0,0-.66.42,1.22,1.22,0,0,0-.23.71c0,2.47-.1,5.61-.14,9.19,0,3-.08,6.29-.11,9.76a6.82,6.82,0,0,0,1-.4,8.14,8.14,0,0,0,2.45-1.83,8.28,8.28,0,0,0,1.89-3.24,8.36,8.36,0,0,0,.26-3.73,49.11,49.11,0,0,0-1.38-6.27,17.83,17.83,0,0,0-1.73-4.1,1.18,1.18,0,0,0-.41-.42,1.22,1.22,0,0,0-.57-.13Zm-26.53-29.41a2.89,2.89,0,0,0-1.43.36,3,3,0,0,0-1.07,1.07,17.84,17.84,0,0,0-2.17,5.61,31.37,31.37,0,0,0-.64,7.43q.27,11.35,3.51,19.12a27.09,27.09,0,0,0,6.26,9.33L1459.46,456a3.08,3.08,0,0,0-.65-1.86,3.36,3.36,0,0,0-1.75-1.12,1.81,1.81,0,0,0-.44-.09A2.59,2.59,0,0,0,1456.18,452.85Z" transform="translate(-128.78 -355.79)"/><path class="cls-10" d="M1489.73,544.08c-3.71,5.41-11.26,9.12-20,9.12s-16.28-3.71-20-9.12a10.57,10.57,0,0,0-3.89,8.19v24.39a23.88,23.88,0,0,0,23.88,23.88h0a23.88,23.88,0,0,0,23.88-23.88V552.27A10.54,10.54,0,0,0,1489.73,544.08Z" transform="translate(-128.78 -355.79)"/><path class="cls-29" d="M1387.43,474.28a1.79,1.79,0,1,1,.93,3.45l-28.61,7.66a1.79,1.79,0,1,1-.92-3.45Z" transform="translate(-128.78 -355.79)"/><path class="cls-29" d="M1390.12,445.88a1.79,1.79,0,1,1-.4,3.55l-28.5-3.35a1.79,1.79,0,0,1,.41-3.55Z" transform="translate(-128.78 -355.79)"/><path class="cls-29" d="M1399.9,415.19a1.79,1.79,0,0,1-2,2.93l-20.12-14a1.79,1.79,0,1,1,2-2.93Z" transform="translate(-128.78 -355.79)"/><path class="cls-29" d="M1425.91,390.76a1.78,1.78,0,0,1-3.19,1.6l-12.12-24a1.78,1.78,0,1,1,3.18-1.61Z" transform="translate(-128.78 -355.79)"/><path class="cls-29" d="M1468.05,382a1.78,1.78,0,0,1-3.56.08l-.49-24.44a1.78,1.78,0,0,1,3.56-.08Z" transform="translate(-128.78 -355.79)"/><path class="cls-29" d="M1512.21,394.34a1.78,1.78,0,1,1-2.81-2.2l18.25-23.37a1.78,1.78,0,1,1,2.81,2.2Z" transform="translate(-128.78 -355.79)"/><path class="cls-29" d="M1540.77,424.93a1.78,1.78,0,0,1-1.88-3L1564,406.26a1.78,1.78,0,0,1,1.88,3Z" transform="translate(-128.78 -355.79)"/><path class="cls-29" d="M1546.73,457.09a2.1,2.1,0,0,1,0-4.19l28.18.13a2.1,2.1,0,1,1,0,4.19Z" transform="translate(-128.78 -355.79)"/><path class="cls-29" d="M1542.67,483.26a1.78,1.78,0,0,1,.93-3.44l34.65,9.5a1.78,1.78,0,0,1-.94,3.44Z" transform="translate(-128.78 -355.79)"/></svg>